PathFileType	4	(X/Y/Z)	C:/Users/opensim2020/Desktop/walking_exp_matlab/subject02_walking15_straight_04.trc																																																																																																																												
DataRate	CameraRate	NumFrames	NumMarkers	Units	OrigDataRate	OrigDataStartFrame	OrigNumFrames																																																																																																																								
100	100	6	42	mm	100	1755	152																																																																																																																								
Frame#	Time	LFHD			RFHD			LBHD			RBHD			C7			T10			CLAV			STRN			RBAK			LSHO			LUPA			LELB			LFRM			LWRA			LWRB			LFIN			RSHO			RUPA			RELB			RFRM			RWRA			RWRB			RFIN			LASI			RASI			LPSI			RPSI			LTHI			LKNE			LTIB			LANK			LHEE			LTOE			RTHI			RKNE			RTIB			RANK			RHEE			RTOE			*39			*40			*41		
		X1	Y1	Z1	X2	Y2	Z2	X3	Y3	Z3	X4	Y4	Z4	X5	Y5	Z5	X6	Y6	Z6	X7	Y7	Z7	X8	Y8	Z8	X9	Y9	Z9	X10	Y10	Z10	X11	Y11	Z11	X12	Y12	Z12	X13	Y13	Z13	X14	Y14	Z14	X15	Y15	Z15	X16	Y16	Z16	X17	Y17	Z17	X18	Y18	Z18	X19	Y19	Z19	X20	Y20	Z20	X21	Y21	Z21	X22	Y22	Z22	X23	Y23	Z23	X24	Y24	Z24	X25	Y25	Z25	X26	Y26	Z26	X27	Y27	Z27	X28	Y28	Z28	X29	Y29	Z29	X30	Y30	Z30	X31	Y31	Z31	X32	Y32	Z32	X33	Y33	Z33	X34	Y34	Z34	X35	Y35	Z35	X36	Y36	Z36	X37	Y37	Z37	X38	Y38	Z38	X39	Y39	Z39	X40	Y40	Z40	X41	Y41	Z41	X42	Y42	Z42
																																																																																																																															
77	0.76	-65.15326	1748.55225	1045.67139	-63.61197	1731.36633	1189.0387	-186.7146	1660.1073	1037.34265	-197.4901	1640.25757	1180.98315	-232.75281	1520.10706	1110.67261	-271.09973	1243.88538	1130.70496	-89.86324	1458.50891	1098.30457	-29.30693	1289.32971	1107.30359	-280.76764	1344.87817	1179.90979	-166.95697	1495.00989	930.40601	-169.73523	1295.67444	849.58667	-157.09306	1151.68494	835.59082	-89.46879	1033.7699	844.26062	14.84841	958.09741	895.65942	-24.77186	932.20844	864.07751	23.82839	888.43555	867.01593	-155.45442	1494.42468	1295.4978	-193.76517	1307.62451	1384.51587	-187.69115	1163.74023	1409.396	-170.51273	1047.85059	1438.64587	-135.20564	915.44617	1432.60754	-182.88696	920.10254	1462.37012	-153.62073	854.7699	1472.97876	-64.89874	973.00232	988.66864	-25.17531	984.33203	1240.8009	-255.70676	1030.34009	1099.16565	-244.51749	1039.71765	1213.50317	-109.61275	658.90509	948.86774	-113.37434	479.72964	969.07269	-265.90707	384.46649	994.289	-412.55374	222.08398	1038.4823	-441.61017	219.97879	1100.59399	-346.49829	87.36414	996.77094	-65.24362	679.48669	1326.07947	-57.33574	469.03241	1287.39319	-100.25513	285.16144	1306.54602	-133.78227	93.82234	1276.15186	-179.48535	41.06275	1229.08191	17.25666	38.17712	1268.75635	-173.99155	1802.76343	1134.94788	-2845.29663	1034.31921	3360.44629	NaN	NaN	NaN
78	0.77	-51.44328	1750.72021	1044.88147	-49.81762	1733.61865	1188.31982	-173.1656	1662.56482	1037.21094	-184.05843	1642.97424	1181.38049	-218.91353	1522.4856	1110.85425	-257.64713	1246.44043	1132.07922	-76.25493	1460.81372	1097.50085	-15.96421	1291.5741	1106.64307	-266.70346	1347.52795	1181.1792	-154.84879	1497.0636	930.36188	-159.49814	1297.79907	849.65558	-149.36603	1153.75842	835.64734	-85.85961	1033.51147	842.40582	16.22579	952.79895	891.95264	-24.35349	929.35522	860.66083	21.67706	882.95874	863.12061	-140.11996	1497.67737	1295.05725	-174.28171	1310.86951	1385.89648	-165.74423	1166.95508	1411.14697	-144.58122	1051.52295	1440.11719	-104.7216	920.6994	1433.88794	-152.60037	923.49823	1463.97424	-120.08013	859.73285	1474.67993	-52.83019	977.07898	987.86664	-12.8806	985.73718	1240.91589	-242.5853	1033.39368	1100.41162	-231.28734	1042.20996	1214.75305	-89.87868	662.80768	948.14355	-87.89301	483.65149	969.76971	-237.21935	383.80606	996.00818	-377.90915	216.0045	1040.08167	-407.36813	212.33154	1102.27454	-305.39072	85.69486	996.38904	-59.01387	679.6944	1326.14856	-56.06643	469.00864	1287.88232	-100.78803	285.53473	1306.62842	-133.87567	94.0289	1275.99329	-179.4929	41.20222	1228.87463	17.20254	38.16445	1268.77368	-160.16046	1805.1637	1134.9281	-2845.31909	1034.26294	3360.37964	NaN	NaN	NaN
79	0.78	-37.78833	1752.48535	1043.94604	-36.03121	1735.62268	1187.29712	-159.37184	1664.65674	1036.77368	-170.38914	1645.18579	1180.62268	-205.14784	1524.54834	1110.98083	-244.20895	1248.85254	1133.5011	-62.60389	1462.80457	1096.64844	-2.55791	1293.43945	1106.05811	-252.71043	1350.37073	1182.43262	-142.58101	1498.71008	930.26044	-149.55637	1299.46704	849.62451	-141.66051	1155.52209	835.37976	-82.57084	1033.14478	840.45514	16.87276	947.99371	888.21771	-24.56249	926.25366	856.88983	18.84546	877.91357	858.96198	-125.15379	1500.65796	1294.19006	-154.87375	1313.93481	1387.03345	-143.72557	1170.08801	1412.80188	-118.58665	1055.2467	1441.31335	-74.04359	926.1153	1434.8927	-121.90173	926.91534	1465.12158	-86.457	864.98334	1476.05627	-40.07218	981.02094	987.74414	-0.45091	987.02045	1241.46643	-229.3792	1035.91479	1101.16394	-218.1595	1044.39746	1215.69849	-70.36128	666.73938	947.34174	-62.93254	487.52155	970.16376	-208.49474	382.1546	997.27838	-342.35355	208.67258	1041.55176	-371.60773	203.15704	1103.7561	-263.46579	82.84441	996.70612	-52.37709	679.66431	1326.09363	-54.81212	468.96674	1288.46277	-100.89436	285.89587	1306.9259	-133.90872	94.2119	1275.828	-179.47679	41.32991	1228.59375	17.16983	38.13843	1268.80347	-146.15561	1807.37134	1133.56299	-2846.04297	1034.34058	3357.38184	NaN	NaN	NaN
80	0.79	-23.59348	1753.84436	1043.43982	-22.07049	1737.1637	1186.36438	-145.91002	1666.31201	1035.95044	-156.35895	1646.68872	1179.15625	-191.31534	1526.24011	1110.96582	-230.85664	1250.89966	1134.92773	-48.92013	1464.44849	1095.88696	10.78302	1294.96228	1105.48779	-238.81876	1352.64819	1184.21936	-130.22968	1499.99768	930.11047	-140.1172	1301.02344	849.56	-134.25107	1157.09424	835.08588	-79.40846	1032.72156	838.35663	17.29216	942.98865	884.28394	-25.39939	923.59338	853.22693	16.20896	872.75745	854.80493	-110.17332	1503.34277	1293.44312	-135.56094	1316.78333	1387.89758	-121.66265	1173.10168	1414.47375	-92.30741	1058.97717	1442.60339	-43.36429	931.91351	1435.63928	-90.85934	930.53534	1466.15466	-52.67841	870.41388	1477.01648	-26.67063	984.83362	988.45557	11.52622	987.92535	1242.13501	-216.45389	1038.05737	1101.56775	-205.08061	1046.25049	1216.32458	-50.84995	670.71375	946.65533	-38.41595	491.06509	970.33405	-179.91733	379.5256	998.1925	-305.85724	200.36955	1042.93103	-334.89453	193.05165	1105.17419	-220.81435	79.27527	997.12012	-47.21491	679.25653	1325.83362	-53.12048	468.85345	1288.60876	-100.97015	286.19339	1306.88513	-133.90182	94.39497	1275.63025	-179.71269	41.66256	1228.53638	17.00284	38.101	1268.78552	-132.41292	1809.2583	1132.73633	NaN	NaN	NaN	NaN	NaN	NaN
81	0.8	-10.31272	1754.94446	1041.87695	-8.27928	1738.54688	1185.12195	-132.40753	1667.44739	1035.03418	-142.64816	1648.40027	1178.70313	-177.52634	1527.53552	1110.9054	-218.12114	1252.83252	1136.3739	-35.10342	1465.58813	1095.177	24.17199	1296.14551	1105.06042	-224.90776	1354.93884	1185.61499	-117.70782	1500.81641	929.93842	-130.03896	1301.82642	849.22327	-126.82126	1158.26575	834.46198	-76.05022	1032.12415	835.86218	17.19884	937.6748	880.56812	-26.23425	920.84729	849.30341	13.0789	868.14368	850.58215	-95.31519	1505.78284	1292.69031	-116.40829	1319.62061	1388.98523	-99.59548	1175.93958	1416.05103	-66.08327	1062.67737	1443.62952	-12.39926	937.76605	1436.16724	-59.83585	934.31989	1466.80566	-18.91016	876.06989	1477.56934	-12.82968	988.22577	989.86761	23.68195	988.57654	1243.22327	-203.51758	1039.67126	1101.53381	-192.0575	1047.70862	1216.55469	-31.70022	674.58142	945.3595	-14.38408	494.07504	970.23199	-151.27802	375.93555	998.67029	-268.4068	191.03525	1044.07043	-296.64987	181.96829	1106.19495	-177.29922	75.20749	997.59845	-41.80026	679.01654	1325.9187	-51.54757	468.65936	1288.6084	-100.46841	286.52496	1306.92285	-133.98199	94.91324	1275.75525	-179.98488	41.91594	1228.32654	17.05634	37.96933	1268.68555	-118.43695	1810.34485	1131.33813	NaN	NaN	NaN	NaN	NaN	NaN
82	0.81	3.457	1755.62537	1040.60583	5.63756	1739.49719	1183.97437	-118.75459	1668.3291	1034.20447	-128.84723	1649.17139	1177.53833	-163.61617	1528.46082	1110.67603	-204.74309	1254.23596	1137.66882	-21.51446	1466.68701	1094.33582	37.48953	1296.94336	1104.6925	-211.06082	1356.51477	1186.7113	-105.03218	1501.21228	929.67334	-120.80676	1302.65735	848.7843	-119.61127	1159.16223	833.83691	-73.62558	1031.65051	833.60034	17.15562	933.16968	876.36847	-27.52009	918.20227	845.31635	9.76712	863.7226	846.06409	-80.52016	1507.58813	1291.68884	-97.37208	1322.24561	1390.08301	-77.60773	1178.5979	1417.58118	-39.96062	1066.32458	1444.34155	18.37306	943.70068	1436.2616	-28.59221	938.27979	1467.24988	14.84491	881.92712	1477.83875	1.67041	991.29559	991.78168	35.77576	988.86346	1244.44897	-190.71133	1040.94409	1101.22266	-179.13301	1048.672	1216.3374	-12.66192	678.00977	944.31165	9.2515	496.64111	969.83533	-122.15841	371.40036	998.59851	-230.11397	181.01593	1044.94116	-258.26035	170.2317	1107.37805	-132.43781	71.07587	997.84991	-36.6399	678.90881	1325.49585	-49.7041	468.53387	1288.65747	-99.66147	286.85138	1306.75403	-133.77808	95.06179	1275.42493	-179.91002	42.16724	1228.00281	17.08857	38.01558	1268.77039	-104.48944	1811.271	1130.5033	-2846.04077	1034.22559	3356.99268	NaN	NaN	NaN
